<?xml version="1.0" encoding="utf-8"?>
<!-- Generator: Adobe Illustrator 23.0.1, SVG Export Plug-In . SVG Version: 6.00 Build 0)  -->
<svg version="1.1" id="Layer_1" xmlns="http://www.w3.org/2000/svg" xmlns:xlink="http://www.w3.org/1999/xlink" x="0px" y="0px"
	 viewBox="0 0 38 42" style="enable-background:new 0 0 38 42;" xml:space="preserve">
<style type="text/css">
	.st0{fill-rule:evenodd;clip-rule:evenodd;fill:#37474F;}
	.st1{fill-rule:evenodd;clip-rule:evenodd;fill:#546E7A;}
	.st2{fill-rule:evenodd;clip-rule:evenodd;fill:#FFFFFF;}
	.st3{fill-rule:evenodd;clip-rule:evenodd;fill:#455A64;}
</style>
<g id="surface1">
	<path class="st0" d="M17.9,0.3c0.7-0.4,1.5-0.4,2.2,0c3.4,1.9,13.4,7.6,16.8,9.4c0.7,0.4,1.1,1.1,1.1,1.8v18.9
		c0,0.8-0.4,1.5-1.1,1.8l-16.8,9.4c-0.7,0.4-1.5,0.4-2.2,0L1.1,32.3C0.4,31.9,0,31.2,0,30.4V11.6c0-0.8,0.4-1.5,1.1-1.8
		C4.4,7.8,14.6,2.2,17.9,0.3z"/>
	<path class="st1" d="M0.3,31.4C0,31,0,30.7,0,30.3V11.5c0-0.8,0.4-1.5,1.1-1.8c3.3-1.9,13.4-7.5,16.8-9.4c0.7-0.4,1.6-0.4,2.3,0
		c3.3,1.9,13.4,7.5,16.7,9.3c0.3,0.2,0.5,0.3,0.7,0.6L0.3,31.4z"/>
	<path class="st2" d="M19,7c7.7,0,14,6.3,14,14s-6.3,14-14,14S5,28.7,5,21S11.3,7,19,7z M19,14c3.9,0,7,3.1,7,7s-3.1,7-7,7
		s-7-3.1-7-7S15.1,14,19,14z"/>
	<path class="st3" d="M37.5,10.2C38,10.7,38,11.4,38,12c0,3.8,0,14.6,0,18.4c0,0.4-0.1,0.8-0.3,1.1L18.6,21L37.5,10.2z"/>
	<path class="st2" d="M29,17h1v8h-1V17z"/>
	<path class="st2" d="M32,17h1v8h-1V17z"/>
	<path class="st2" d="M27,22h8v1h-8V22z"/>
	<path class="st2" d="M27,19h8v1h-8V19z"/>
</g>
</svg>
