<?xml version="1.0" encoding="utf-8"?>
<!-- Generator: Adobe Illustrator 23.0.1, SVG Export Plug-In . SVG Version: 6.00 Build 0)  -->
<svg version="1.1" id="Layer_1" xmlns="http://www.w3.org/2000/svg" xmlns:xlink="http://www.w3.org/1999/xlink" x="0px" y="0px"
	 viewBox="0 0 380 420" style="enable-background:new 0 0 380 420;" xml:space="preserve">
<style type="text/css">
	.st0{fill-rule:evenodd;clip-rule:evenodd;fill:#283593;}
	.st1{fill-rule:evenodd;clip-rule:evenodd;fill:#5C6BC0;}
	.st2{fill-rule:evenodd;clip-rule:evenodd;fill:#FFFFFF;}
	.st3{fill-rule:evenodd;clip-rule:evenodd;fill:#3949AB;}
</style>
<g id="surface1">
	<path class="st0" d="M179,2.8c6.8-3.8,15.2-3.8,22,0c33.5,18.8,134.5,75.5,168,94.3c6.8,3.8,11,10.9,11,18.5c0,37.7,0,151,0,188.7
		c0,7.6-4.2,14.6-11,18.5c-33.6,18.8-134.5,75.5-168,94.3c-6.8,3.8-15.2,3.8-22,0c-33.6-18.8-134.5-75.5-168-94.3
		C4.2,319,0,311.9,0,304.3c0-37.7,0-151,0-188.7C0,108,4.2,101,11,97.2C44.5,78.3,145.5,21.7,179,2.8z"/>
	<path class="st1" d="M3,314c-2.7-3.6-3-6.9-3-11.5C0,265.1,0,152.4,0,115c0-7.6,4.2-14.6,10.9-18.4C44.4,77.9,145,21.5,178.4,2.8
		c6.8-3.8,15.9-3.7,22.7,0.1c33.4,18.7,133.7,74.6,167.1,93.3c2.7,1.5,4.8,3.4,6.6,5.8L3,314z"/>
	<path class="st2" d="M190,70c77.3,0,140,62.7,140,140s-62.7,140-140,140S50,287.3,50,210S112.7,70,190,70z M190,140
		c38.6,0,70,31.4,70,70s-31.4,70-70,70s-70-31.4-70-70S151.4,140,190,140z"/>
	<path class="st3" d="M374.8,102c5.2,4.8,5.1,12.1,5.1,17.9c0,38-0.3,145.9,0.1,183.8c0,4-1.3,8.2-3.2,11.3L185.9,210L374.8,102z"/>
</g>
</svg>
