<?xml version="1.0" encoding="utf-8"?>
<!-- Generator: Adobe Illustrator 23.0.1, SVG Export Plug-In . SVG Version: 6.00 Build 0)  -->
<svg version="1.1" id="svg4525" xmlns="http://www.w3.org/2000/svg" xmlns:xlink="http://www.w3.org/1999/xlink" x="0px" y="0px"
	 viewBox="0 0 2199 3013.8" style="enable-background:new 0 0 2199 3013.8;" xml:space="preserve">
<style type="text/css">
	.st0{fill:#D4B830;}
	.st1{opacity:0.986;fill:#EBEBEB;fill-opacity:0;enable-background:new    ;}
	.st2{opacity:0.986;fill:#EBEBEB;fill-opacity:0.9216;enable-background:new    ;}
	.st3{fill:#FDD83C;}
	.st4{fill:#0E0E0F;}
</style>
<g id="g5193" transform="translate(4.988 -113.385)">
	<path id="path5113" class="st0" d="M199,2874.3L-5.1,627.3l2199,0.9l-202.4,2244.4l-898.8,253.9L199,2874.3z M1826,2751.7
		l170.7-1924.5h-900.5l6.9,2122.6L1826,2751.7z M1012.1,1109.3H793.4l-2.6,1151.8l-424.5-115.8l0.9,263.3l644.9,174.1L1012.1,1109.3
		L1012.1,1109.3z"/>
	<path id="path5159" class="st1" d="M940,2561.3c-28.3-8.6-168.1-46.3-310.5-84.9l-258.1-69.5v-129.5c0-126.9,0-129.5,12.9-125.2
		c6.9,2.6,101.2,28.3,209.3,58.3l196.4,54l1.7-574.6l1.7-574.6h214.4V1846c0,580.6-1.7,730.7-7.7,730.7
		C995.8,2575.9,968.3,2569,940,2561.3L940,2561.3z"/>
	<path id="path5157" class="st2" d="M367.1,2408.6l-0.9-263.3c0,0,271,76.3,424.5,115.8l2.6-1150.9h218.7v1472.6L367.1,2408.6
		L367.1,2408.6z"/>
	<path id="path5117" class="st3" d="M1096.1,826.3h900.5L1826,2750.8l-729.8,198.1V826.3z M1779.7,2428.4l59.2-719.6l-437.4,48.9
		v-384.2l466.6-1.7l18.9-262.4l-704.1,3.4l9.4,955.4l425.4-72.9l-6,212.7L1182.7,2322l4.3,260.7L1779.7,2428.4L1779.7,2428.4z"/>
</g>
<path id="path76" class="st4" d="M736.9,314.4v-64.2h91.2h91.2V125.4V0.6h63.6h64.2v189V378H891.7H736.9
	C736.9,378,736.9,314.4,736.9,314.4z M1107.7,327.6v-50.4h84.6c46.2,0,84.6-1.8,84.6-3.6c0-1.8-37.8-45-84.6-95.4l-84.6-91.8V43.2V0
	h175.2h175.2v50.4v50.4l-82.2,1.8l-82.2,1.8l85.8,92.4l85.8,92.4v45v44.4h-178.8h-178.8V327.6z"/>
</svg>
